<?xml version="1.0" encoding="utf-8"?>
<!-- Generator: Adobe Illustrator 16.0.3, SVG Export Plug-In . SVG Version: 6.00 Build 0)  -->
<!DOCTYPE svg PUBLIC "-//W3C//DTD SVG 1.1//EN" "http://www.w3.org/Graphics/SVG/1.1/DTD/svg11.dtd">
<svg version="1.1" id="Layer_1" xmlns="http://www.w3.org/2000/svg" xmlns:xlink="http://www.w3.org/1999/xlink" x="0px" y="0px"
	 width="612.001px" height="612.001px" viewBox="0 0 612.001 612.001" enable-background="new 0 0 612.001 612.001"
	 xml:space="preserve">
<g>
	
		<path fill-rule="evenodd" clip-rule="evenodd" fill="#4D4948" stroke="#4D4948" stroke-width="8.4943" stroke-miterlimit="22.9256" d="
		M161.497,65.16h289.001c53.063,0,96.335,43.274,96.335,96.335v289.001c0,53.063-43.274,96.335-96.335,96.335H161.497
		c-53.062,0-96.335-43.273-96.335-96.335V161.495C65.162,108.433,108.436,65.16,161.497,65.16z"/>
	
		<path fill-rule="evenodd" clip-rule="evenodd" fill="#DDEAE6" stroke="#00923F" stroke-width="16.9911" stroke-miterlimit="22.9256" d="
		M180.762,118.145h250.473c34.491,0,62.618,28.128,62.618,62.617v250.473c0,34.491-28.129,62.618-62.618,62.618H180.762
		c-34.491,0-62.617-28.129-62.617-62.618V180.762C118.145,146.271,146.273,118.145,180.762,118.145z"/>
	
		<line fill-rule="evenodd" clip-rule="evenodd" fill="none" stroke="#E77817" stroke-width="33.9849" stroke-linecap="round" stroke-miterlimit="22.9256" x1="65.16" y1="402.336" x2="16.993" y2="402.336"/>
	
		<line fill-rule="evenodd" clip-rule="evenodd" fill="none" stroke="#E77817" stroke-width="33.9849" stroke-linecap="round" stroke-miterlimit="22.9256" x1="65.16" y1="354.131" x2="16.993" y2="354.131"/>
	
		<line fill-rule="evenodd" clip-rule="evenodd" fill="none" stroke="#E77817" stroke-width="33.9849" stroke-linecap="round" stroke-miterlimit="22.9256" x1="65.16" y1="257.835" x2="16.993" y2="257.835"/>
	
		<line fill-rule="evenodd" clip-rule="evenodd" fill="none" stroke="#E77817" stroke-width="33.9849" stroke-linecap="round" stroke-miterlimit="22.9256" x1="65.16" y1="305.958" x2="16.993" y2="305.958"/>
	
		<line fill-rule="evenodd" clip-rule="evenodd" fill="none" stroke="#E77817" stroke-width="33.9849" stroke-linecap="round" stroke-miterlimit="22.9256" x1="65.16" y1="209.63" x2="16.993" y2="209.63"/>
	
		<line fill-rule="evenodd" clip-rule="evenodd" fill="none" stroke="#E77817" stroke-width="33.9849" stroke-linecap="round" stroke-miterlimit="22.9256" x1="65.16" y1="161.458" x2="16.993" y2="161.458"/>
	
		<line fill-rule="evenodd" clip-rule="evenodd" fill="none" stroke="#E77817" stroke-width="33.9849" stroke-linecap="round" stroke-miterlimit="22.9256" x1="65.16" y1="450.491" x2="16.993" y2="450.491"/>
	
		<line fill-rule="evenodd" clip-rule="evenodd" fill="none" stroke="#E77817" stroke-width="33.9849" stroke-linecap="round" stroke-miterlimit="22.9256" x1="595.009" y1="402.336" x2="546.836" y2="402.336"/>
	
		<line fill-rule="evenodd" clip-rule="evenodd" fill="none" stroke="#E77817" stroke-width="33.9849" stroke-linecap="round" stroke-miterlimit="22.9256" x1="595.009" y1="354.131" x2="546.836" y2="354.131"/>
	
		<line fill-rule="evenodd" clip-rule="evenodd" fill="none" stroke="#E77817" stroke-width="33.9849" stroke-linecap="round" stroke-miterlimit="22.9256" x1="595.009" y1="257.835" x2="546.836" y2="257.835"/>
	
		<line fill-rule="evenodd" clip-rule="evenodd" fill="none" stroke="#E77817" stroke-width="33.9849" stroke-linecap="round" stroke-miterlimit="22.9256" x1="595.009" y1="305.958" x2="546.836" y2="305.958"/>
	
		<line fill-rule="evenodd" clip-rule="evenodd" fill="none" stroke="#E77817" stroke-width="33.9849" stroke-linecap="round" stroke-miterlimit="22.9256" x1="595.009" y1="209.63" x2="546.836" y2="209.63"/>
	
		<line fill-rule="evenodd" clip-rule="evenodd" fill="none" stroke="#E77817" stroke-width="33.9849" stroke-linecap="round" stroke-miterlimit="22.9256" x1="595.009" y1="161.458" x2="546.836" y2="161.458"/>
	
		<line fill-rule="evenodd" clip-rule="evenodd" fill="none" stroke="#E77817" stroke-width="33.9849" stroke-linecap="round" stroke-miterlimit="22.9256" x1="595.009" y1="450.491" x2="546.836" y2="450.491"/>
	
		<line fill-rule="evenodd" clip-rule="evenodd" fill="none" stroke="#E77817" stroke-width="33.9849" stroke-linecap="round" stroke-miterlimit="22.9256" x1="209.663" y1="595.009" x2="209.663" y2="546.836"/>
	
		<line fill-rule="evenodd" clip-rule="evenodd" fill="none" stroke="#E77817" stroke-width="33.9849" stroke-linecap="round" stroke-miterlimit="22.9256" x1="257.867" y1="595.009" x2="257.867" y2="546.836"/>
	
		<line fill-rule="evenodd" clip-rule="evenodd" fill="none" stroke="#E77817" stroke-width="33.9849" stroke-linecap="round" stroke-miterlimit="22.9256" x1="354.163" y1="595.009" x2="354.163" y2="546.836"/>
	
		<line fill-rule="evenodd" clip-rule="evenodd" fill="none" stroke="#E77817" stroke-width="33.9849" stroke-linecap="round" stroke-miterlimit="22.9256" x1="306.04" y1="595.009" x2="306.04" y2="546.836"/>
	
		<line fill-rule="evenodd" clip-rule="evenodd" fill="none" stroke="#E77817" stroke-width="33.9849" stroke-linecap="round" stroke-miterlimit="22.9256" x1="402.368" y1="595.009" x2="402.368" y2="546.836"/>
	
		<line fill-rule="evenodd" clip-rule="evenodd" fill="none" stroke="#E77817" stroke-width="33.9849" stroke-linecap="round" stroke-miterlimit="22.9256" x1="450.54" y1="595.009" x2="450.54" y2="546.836"/>
	
		<line fill-rule="evenodd" clip-rule="evenodd" fill="none" stroke="#E77817" stroke-width="33.9849" stroke-linecap="round" stroke-miterlimit="22.9256" x1="161.515" y1="595.009" x2="161.515" y2="546.836"/>
	
		<line fill-rule="evenodd" clip-rule="evenodd" fill="none" stroke="#E77817" stroke-width="33.9849" stroke-linecap="round" stroke-miterlimit="22.9256" x1="209.646" y1="65.16" x2="209.646" y2="16.993"/>
	
		<line fill-rule="evenodd" clip-rule="evenodd" fill="none" stroke="#E77817" stroke-width="33.9849" stroke-linecap="round" stroke-miterlimit="22.9256" x1="257.851" y1="65.16" x2="257.851" y2="16.993"/>
	
		<line fill-rule="evenodd" clip-rule="evenodd" fill="none" stroke="#E77817" stroke-width="33.9849" stroke-linecap="round" stroke-miterlimit="22.9256" x1="354.147" y1="65.16" x2="354.147" y2="16.993"/>
	
		<line fill-rule="evenodd" clip-rule="evenodd" fill="none" stroke="#E77817" stroke-width="33.9849" stroke-linecap="round" stroke-miterlimit="22.9256" x1="306.023" y1="65.16" x2="306.023" y2="16.993"/>
	
		<line fill-rule="evenodd" clip-rule="evenodd" fill="none" stroke="#E77817" stroke-width="33.9849" stroke-linecap="round" stroke-miterlimit="22.9256" x1="402.352" y1="65.16" x2="402.352" y2="16.993"/>
	
		<line fill-rule="evenodd" clip-rule="evenodd" fill="none" stroke="#E77817" stroke-width="33.9849" stroke-linecap="round" stroke-miterlimit="22.9256" x1="450.524" y1="65.16" x2="450.524" y2="16.993"/>
	
		<line fill-rule="evenodd" clip-rule="evenodd" fill="none" stroke="#E77817" stroke-width="33.9849" stroke-linecap="round" stroke-miterlimit="22.9256" x1="161.497" y1="65.16" x2="161.497" y2="16.993"/>
</g>
<g>
	<path fill-rule="evenodd" clip-rule="evenodd" fill="#1586CB" d="M202.623,150.935h206.755c28.541,0,51.688,23.146,51.688,51.688
		v206.754c0,28.543-23.147,51.688-51.688,51.688H202.623c-28.542,0-51.688-23.146-51.688-51.688l-0.001-206.754
		C150.936,174.081,174.081,150.935,202.623,150.935L202.623,150.935z"/>
	<path fill-rule="evenodd" clip-rule="evenodd" fill="#00923F" d="M425.73,325.384c-48.242,2.081-74.187,29.853-107.215,47.448
		c-42.755,22.872-92.82,11.225-119.33-4.24c-13.563-7.753-30.686-7.753-48.25-3.877v44.421c0,28.636,23.053,51.688,51.688,51.688
		h206.755c28.636,0,51.688-23.053,51.688-51.688v-78.14c-11.103-3.067-22.375-6.081-35.336-5.857V325.384z"/>
	<path fill-rule="evenodd" clip-rule="evenodd" fill="#9CFA57" d="M226.061,176.398c-27.222,0-49.279,22.54-49.279,49.898
		c0,8.062,1.947,15.676,5.347,22.403h59.14v108.869c0,0,0,3.362,0,5.045v5.951v52.988c0,18.174,33.479,18.27,33.479,0v-14.797h8.636
		v14.797c0,18.174,33.478,18.27,33.478,0v-14.797h40.223v14.797c0,18.174,33.477,18.27,33.477,0v-14.797h8.637v14.797
		c0,18.174,33.479,18.27,33.479,0v-36.704c1.659-7.107,2.558-14.86,2.558-22.614c0-53.866-43.462-97.464-97.059-97.464
		c-24.254,0-46.402,8.956-63.417,23.725v-54.891c0.382-2.509,0.575-5.068,0.575-7.688
		C275.331,198.558,253.283,176.398,226.061,176.398l-0.01,0.38L226.061,176.398z M226.051,202.24
		c7.912,0,14.313,6.432,14.313,14.384c0,2.343-0.575,4.576-1.563,6.531h-25.498c-0.988-1.955-1.563-4.188-1.563-6.531
		C211.739,208.672,218.14,202.24,226.051,202.24L226.051,202.24z"/>
</g>
</svg>
