<?xml version="1.0" encoding="utf-8"?>
<!-- Generator: Adobe Illustrator 16.0.3, SVG Export Plug-In . SVG Version: 6.00 Build 0)  -->
<!DOCTYPE svg PUBLIC "-//W3C//DTD SVG 1.1//EN" "http://www.w3.org/Graphics/SVG/1.1/DTD/svg11.dtd">
<svg version="1.1" id="Layer_1" xmlns="http://www.w3.org/2000/svg" xmlns:xlink="http://www.w3.org/1999/xlink" x="0px" y="0px"
	 width="283.46px" height="283.46px" viewBox="0 0 283.46 283.46" enable-background="new 0 0 283.46 283.46" xml:space="preserve">
<path stroke="#72B02E" stroke-width="22.6772" stroke-miterlimit="10" d="M269.579,255.427c0,7.657-6.207,13.864-13.863,13.864
	H28.326c-7.657,0-13.865-6.207-13.865-13.864V28.038c0-7.657,6.208-13.865,13.865-13.865h227.39c7.656,0,13.863,6.208,13.863,13.865
	V255.427z"/>
<defs>
	
	
		<inkscape:perspective  inkscape:vp_z="48 : 24 : 1" sodipodi:type="inkscape:persp3d" inkscape:vp_y="0 : 1000 : 0" id="perspective60" inkscape:vp_x="0 : 24 : 1" inkscape:persp3d-origin="24 : 16 : 1">
		</inkscape:perspective>
</defs>
<sodipodi:namedview  fill="#3465a4" stroke="#204a87" inkscape:zoom="4" bordercolor="#666666" showgrid="false" id="base" pagecolor="#ffffff" inkscape:cy="26.37487" borderopacity="0.25490196" inkscape:cx="19.425317" inkscape:pageopacity="0.0" inkscape:pageshadow="2" inkscape:current-layer="layer1" inkscape:grid-bbox="true" inkscape:document-units="px" inkscape:showpageshadow="false" inkscape:window-width="1034" inkscape:window-height="818" inkscape:window-x="400" inkscape:window-y="30">
	</sodipodi:namedview>
<defs>
	
	
		<inkscape:perspective  inkscape:vp_z="48 : 24 : 1" sodipodi:type="inkscape:persp3d" inkscape:vp_y="0 : 1000 : 0" id="perspective78" inkscape:vp_x="0 : 24 : 1" inkscape:persp3d-origin="24 : 16 : 1">
		</inkscape:perspective>
</defs>
<sodipodi:namedview  inkscape:zoom="1" bordercolor="#666666" showgrid="false" id="base" pagecolor="#ffffff" inkscape:cy="25.564139" borderopacity="0.14117647" inkscape:cx="23.940203" inkscape:pageopacity="0.0" inkscape:pageshadow="2" inkscape:current-layer="layer1" inkscape:grid-bbox="true" inkscape:document-units="px" inkscape:showpageshadow="false" inkscape:window-width="872" inkscape:window-height="688" inkscape:window-x="483" inkscape:window-y="160">
	</sodipodi:namedview>
<g id="layer1" inkscape:label="Layer 1" inkscape:groupmode="layer">
	<g id="g6707" transform="matrix(2.33489e-2,0,0,2.086758e-2,45.33878,41.86789)">
		
			<linearGradient id="rect6709_1_" gradientUnits="userSpaceOnUse" x1="262853.75" y1="-373332.2188" x2="262853.75" y2="-374303.75" gradientTransform="matrix(0.0648 0 0 -0.0411 -12892.1777 -7526.6738)">
			<stop  offset="0" style="stop-color:#000000;stop-opacity:0"/>
			<stop  offset="0.5" style="stop-color:#000000"/>
			<stop  offset="1" style="stop-color:#000000;stop-opacity:0"/>
		</linearGradient>
		
			<rect id="rect6709" x="1461.501" y="7817.286" opacity="0.4021" fill="url(#rect6709_1_)" enable-background="new    " width="5358.463" height="1913.441"/>
		
			<radialGradient id="path6711_1_" cx="304715.125" cy="-396338.6875" r="468.5046" gradientTransform="matrix(0.0648 0 0 -0.0411 -12891.6348 -7526.6738)" gradientUnits="userSpaceOnUse">
			<stop  offset="0" style="stop-color:#000000"/>
			<stop  offset="1" style="stop-color:#000000;stop-opacity:0"/>
		</radialGradient>
		<path id="path6711" sodipodi:nodetypes="cccc" opacity="0.4021" fill="url(#path6711_1_)" enable-background="new    " d="
			M6819.964,7817.474v1913.254c571.491,3.744,1381.549-428.662,1381.549-956.721S7563.773,7817.474,6819.964,7817.474z"/>
		
			<radialGradient id="path6713_1_" cx="-217957.1094" cy="-396338.6875" r="468.5048" gradientTransform="matrix(-0.0648 0 0 -0.0411 -12695.9551 -7526.6738)" gradientUnits="userSpaceOnUse">
			<stop  offset="0" style="stop-color:#000000"/>
			<stop  offset="1" style="stop-color:#000000;stop-opacity:0"/>
		</radialGradient>
		<path id="path6713" sodipodi:nodetypes="cccc" opacity="0.4021" fill="url(#path6713_1_)" enable-background="new    " d="
			M1461.501,7817.474v1913.254C890.01,9734.472,79.868,9302.065,79.868,8774.007S717.609,7817.474,1461.501,7817.474z"/>
	</g>
	
		<radialGradient id="rect1440_1_" cx="-125.0586" cy="275.0645" r="78.285" gradientTransform="matrix(2.8831 0 0 -2.136 458.291 732.5098)" gradientUnits="userSpaceOnUse">
		<stop  offset="0" style="stop-color:#5D5D5D"/>
		<stop  offset="1" style="stop-color:#444444"/>
	</radialGradient>
	<path id="rect1440" fill="url(#rect1440_1_)" stroke="#1B1B1B" d="M70.02,116.406h143.429c2.523,0,4.57,2.047,4.57,4.572v102.845
		c0,2.523-2.047,4.57-4.57,4.57H70.02c-2.523,0-4.57-2.047-4.57-4.57V120.978C65.45,118.453,67.497,116.406,70.02,116.406z"/>
	
		<linearGradient id="rect2609_1_" gradientUnits="userSpaceOnUse" x1="103.6582" y1="197.1113" x2="166.7168" y2="55.8737" gradientTransform="matrix(1 0 0 -1 0.0449 284.7598)">
		<stop  offset="0" style="stop-color:#FFFFFF"/>
		<stop  offset="1" style="stop-color:#FFFFFF;stop-opacity:0"/>
	</linearGradient>
	<path id="rect2609" opacity="0.3116" fill="none" stroke="url(#rect2609_1_)" enable-background="new    " d="M70.399,120.078
		H212.5c0.602,0,1.094,0.49,1.094,1.096V223.21c0,0.605-0.492,1.094-1.094,1.094H70.399c-0.605,0-1.096-0.488-1.096-1.094V121.173
		C69.303,120.568,69.793,120.078,70.399,120.078z"/>
	<g id="g4376" transform="matrix(-0.972710,0.232023,0.232023,0.972710,45.78579,5.110631)">
		
			<linearGradient id="rect4362_1_" gradientUnits="userSpaceOnUse" x1="782.5888" y1="23.0391" x2="846.6346" y2="-27.2925" gradientTransform="matrix(-1 -0.0074 0.0074 -1 647.4924 135.0303)">
			<stop  offset="0" style="stop-color:#FDFDFD"/>
			<stop  offset="1" style="stop-color:#D4D4D4"/>
		</linearGradient>
		<path id="rect4362" fill="url(#rect4362_1_)" stroke="#2B2B2B" d="M-140.553,143.476L5.686,109.74
			c2.461-0.569,4.915,0.966,5.481,3.425l3.798,16.461c0.567,2.461-0.966,4.915-3.427,5.482l-146.237,33.736
			c-2.462,0.569-4.917-0.966-5.484-3.427l-3.797-16.459C-144.547,146.497-143.016,144.044-140.553,143.476z"/>
		<path id="path4364" sodipodi:nodetypes="ccccc" d="M-124.204,141.56l-9.713,26.285l18.853-5.142l9.716-25.144L-124.204,141.56z"/>
		<path id="path4366" sodipodi:nodetypes="ccccc" d="M-87.636,133.276l-9.139,26l18.856-4.572l9.142-25.428L-87.636,133.276z"/>
		<path id="path4368" sodipodi:nodetypes="ccccc" d="M-49.348,124.418l-9.143,25.714l18.857-4.57l9.142-25.143L-49.348,124.418z"/>
		<path id="path4370" sodipodi:nodetypes="ccccccc" d="M-3.313,113.758c0.918,0.622,1.606,1.454,1.875,2.625l2.929,12.303
			l-2.892,8.001l-18.749,4.338l9.124-25.428L-3.313,113.758z"/>
		<path id="rect4372" fill="none" stroke="#FFFFFF" stroke-opacity="0.5751" d="M-139.333,147.193L6.098,113.642
			c0.571-0.132,1.14,0.224,1.272,0.795l3.666,15.89c0.13,0.571-0.224,1.14-0.795,1.272l-145.432,33.55
			c-0.567,0.131-1.142-0.224-1.27-0.795l-3.666-15.89C-140.258,147.894-139.904,147.324-139.333,147.193z"/>
	</g>
	
		<linearGradient id="rect2200_1_" gradientUnits="userSpaceOnUse" x1="12.1777" y1="162.0137" x2="76.2245" y2="111.6814" gradientTransform="matrix(0.9744 -0.2248 -0.2248 -0.9744 90.9863 210.5537)">
		<stop  offset="0" style="stop-color:#FDFDFD"/>
		<stop  offset="1" style="stop-color:#D4D4D4"/>
	</linearGradient>
	<path id="rect2200" fill="url(#rect2200_1_)" stroke="#2E2E2E" stroke-width="1" d="M59.51,86.24l147.298-33.98
		c2.457-0.568,4.914,0.967,5.48,3.426l4.188,18.146c0.57,2.461-0.969,4.916-3.43,5.482l-147.294,33.98
		c-2.461,0.568-4.914-0.967-5.482-3.426l-4.186-18.146C55.516,89.261,57.051,86.806,59.51,86.24z"/>
	<path id="path2202" sodipodi:nodetypes="ccccc" d="M84.307,82.693l-9.715,26.285l18.857-5.143l9.713-25.143L84.307,82.693z"/>
	<path id="path2204" sodipodi:nodetypes="ccccc" d="M121.45,73.263l-10.572,28l18.857-4.57l10.572-27.43L121.45,73.263z"/>
	<path id="path2206" sodipodi:nodetypes="ccccc" d="M160.02,64.693l-10.285,28.57l18.859-4.57l10.281-28L160.02,64.693z"/>
	<path id="rect2210" sodipodi:nodetypes="ccccccc" d="M208.914,54.031c0.914,0.625,1.602,1.455,1.875,2.625l2.641,10.59
		l-4.32,11.143l-20.465,4.91l9.41-26.855L208.914,54.031z"/>
	<path id="rect2510" fill="none" stroke="#FFFFFF" stroke-width="1" stroke-opacity="0.5751" d="M60.733,89.957l146.822-33.871
		c0.57-0.133,1.137,0.225,1.27,0.795l3.941,17.088c0.133,0.572-0.227,1.141-0.797,1.273L65.151,109.111
		c-0.57,0.133-1.139-0.225-1.271-0.795l-3.941-17.09C59.805,90.656,60.161,90.087,60.733,89.957z"/>
	
		<linearGradient id="path3583_1_" gradientUnits="userSpaceOnUse" x1="84.019" y1="169.5625" x2="73.019" y2="188.8482" gradientTransform="matrix(1 0 0 -1 0.0449 284.7598)">
		<stop  offset="0" style="stop-color:#939393"/>
		<stop  offset="1" style="stop-color:#D9D9D9"/>
	</linearGradient>
	<path id="path3583" sodipodi:nodetypes="ccccccc" fill="url(#path3583_1_)" stroke="#1B1B1B" d="M69.877,93.693v31.143
		c0,1.857,1.572,3.57,3.43,3.715h31.57c3.455,0,5.096-5.049,2.43-7.715L82.45,91.693C78.592,86.121,69.877,88.835,69.877,93.693z"/>
	
		<path id="path3587" sodipodi:cx="8.5535717" sodipodi:ry="0.48214287" sodipodi:cy="17.196428" sodipodi:type="arc" sodipodi:rx="0.48214287" fill="#FFFFFF" d="
		M79.592,99.048c0.002,1.066-0.861,1.93-1.926,1.932c-1.066,0.002-1.93-0.861-1.932-1.926c0-0.002,0-0.004,0-0.006
		c-0.002-1.064,0.861-1.93,1.926-1.93c1.064-0.002,1.93,0.861,1.932,1.926C79.592,99.046,79.592,99.046,79.592,99.048z"/>
	
		<path id="path3589" sodipodi:cx="8.5535717" sodipodi:ry="0.48214287" sodipodi:cy="17.196428" sodipodi:type="arc" sodipodi:rx="0.48214287" fill="#FFFFFF" d="
		M79.592,120.191c0.002,1.066-0.861,1.93-1.926,1.932c-1.066,0.002-1.93-0.861-1.932-1.926c0-0.002,0-0.004,0-0.006
		c-0.002-1.064,0.861-1.93,1.926-1.93c1.064-0.002,1.93,0.861,1.932,1.926C79.592,120.189,79.592,120.191,79.592,120.191z"/>
	
		<path id="path3591" sodipodi:cx="8.5535717" sodipodi:ry="0.48214287" sodipodi:cy="17.196428" sodipodi:type="arc" sodipodi:rx="0.48214287" fill="#FFFFFF" d="
		M99.735,120.191c0.002,1.066-0.861,1.93-1.926,1.932s-1.93-0.861-1.932-1.926c0-0.002,0-0.004,0-0.006
		c-0.002-1.064,0.861-1.93,1.926-1.93c1.066-0.002,1.93,0.861,1.932,1.926C99.735,120.189,99.735,120.191,99.735,120.191z"/>
	<g id="g3629" transform="translate(0.000000,4.000000)" opacity="0.2613">
		<path id="path3601" fill="none" stroke="#FFFFFF" d="M83.735,175.823h112"/>
		<path id="path3603" fill="none" stroke="#FFFFFF" d="M83.735,192.394h112"/>
		<path id="path3607" fill="none" stroke="#FFFFFF" d="M173.734,174.108v-16"/>
		<path id="path3605" fill="none" stroke="#FFFFFF" d="M83.735,192.394h112"/>
		<path id="path3611" fill="none" stroke="#FFFFFF" d="M133.735,174.108v-16"/>
		<path id="path3615" fill="none" stroke="#FFFFFF" d="M82.708,208.394h53.199"/>
	</g>
	<g id="g3680" transform="matrix(0.688056,0.000000,0.000000,0.688056,11.98189,14.73331)">
		<path id="path3674" fill="#FFFFFF" d="M171.073,248.419c0.454,3.861,0.979,7.715,1.581,11.553l-8.431,4.462
			c-0.534-3.775-0.979-7.573-1.805-11.298L171.073,248.419z"/>
		<path id="path3676" fill="#FFFFFF" d="M186.464,251.757c-0.097,8.317,2.717,4.775-7.642,10.361
			c3.262-5.217,8.766-10.48,14.195-5.779c10.361,1.68-5.736,9.924,1.419,1.255c10.401-9.078,8.891-3.991,17.616-3.474
			c7.119,1.72,7.182,0.221-2.282,5.666c0.131-0.114,0.255-0.221,0.386-0.335l8.953-3.792c-0.102,0.159-0.204,0.312-0.307,0.465
			c-11.241,6.71-6.671,4.735-14.585,3.707c-7.466-1.311-11.502-2.208-0.88-5.938c-4.564,5.172-11.928,13.2-18.479,7.534
			c-6.353-4.684,8.532-9.651,3.06-2.929c-10.73,5.916-9.603,6.211-10.245-2.26L186.464,251.757z"/>
		<path id="path3678" fill="#FFFFFF" d="M232.509,241.986c0.579,6.035,0.897,12.081,1.612,18.099
			c5.7,7.403-7.301,18.536-5.382,7.238c1.363-12.978,2.6-15.38,14.114-19.524c2.191,3.94,3.389,8.556,6.813,10.912
			c-19.359,10.208,6.779-5.921,9.685-7.466c1.862-0.437,3.758-0.664,5.649-0.925l-7.681,5.751c-1.862,0.272-3.741,0.471-5.541,1.045
			c11.99-7.647-2.271,3.367-10.026,7.273c-3.69-2.901-4.576-7.579-7.131-11.525c12.581-8.874,2.532-0.568,2.555,10.31
			c-1.135,9.401-13.285,14.199-11.264,1.226c-0.693-5.927-0.999-11.934-2.123-17.792L232.509,241.986z"/>
	</g>
	<g id="g3755" transform="matrix(1.013963,0.000000,0.000000,1.013963,1.878556,5.469083)">
		<path id="path3693" fill="#FFFFFF" d="M93.957,155.095c7.283-5.332,4.507-1.125,4.513,4.588
			c-0.06,5.147,0.703,10.224,1.849,15.225l-5.051,2.728c-1.15-5.039-1.919-10.159-1.901-15.344
			c-0.081-6.21-1.156-7.809,5.388-10.683L93.957,155.095z"/>
		<path id="path3695" fill="#FFFFFF" d="M111.135,155.253c-0.098,3.159-0.096,6.326-0.108,9.485
			c-0.004,1.329-0.004,2.658-0.006,3.983l-5.058,2.581c-0.002-1.325-0.002-2.65-0.006-3.98c-0.012-3.124-0.01-6.253-0.108-9.377
			L111.135,155.253z"/>
		<path id="path3697" fill="#FFFFFF" d="M120.024,150.403c0.395,3.186,0.468,6.622,0.58,9.893c0.033,0.963,0.054,1.93,0.079,2.893
			l-5.029,2.581c-0.031-0.959-0.054-1.919-0.094-2.882c-0.143-3.259-0.166-6.592-0.821-9.793L120.024,150.403z"/>
		<path id="path3699" fill="#FFFFFF" d="M129.721,147.979c-0.784,2.728-1.075,5.586-1.35,8.414c-0.27,3.043-0.391,6.102-0.514,9.153
			l-5.029,2.539c0.121-3.055,0.239-6.106,0.462-9.157c0.222-2.751,0.333-5.621,1.146-8.256L129.721,147.979z"/>
		<path id="path3701" fill="#FFFFFF" d="M88.278,154.841c3.627,0.767,7.308,1.395,10.97,2.015
			c8.599,1.329,17.226,2.508,25.871,3.494c3.616,0.37,7.229,0.763,10.839,1.19l-4.673,3.305c-3.575-0.447-7.156-0.855-10.739-1.252
			c-8.649-1.04-17.284-2.219-25.9-3.51c-3.712-0.593-7.447-1.325-11.166-1.757L88.278,154.841z"/>
	</g>
</g>
</svg>
