<?xml version="1.0" encoding="utf-8"?>
<!-- Generator: Adobe Illustrator 16.0.3, SVG Export Plug-In . SVG Version: 6.00 Build 0)  -->
<!DOCTYPE svg PUBLIC "-//W3C//DTD SVG 1.1//EN" "http://www.w3.org/Graphics/SVG/1.1/DTD/svg11.dtd">
<svg version="1.1" id="Layer_1" xmlns="http://www.w3.org/2000/svg" xmlns:xlink="http://www.w3.org/1999/xlink" x="0px" y="0px"
	 width="283.46px" height="283.46px" viewBox="0 0 283.46 283.46" enable-background="new 0 0 283.46 283.46" xml:space="preserve">
<path stroke="#72B02E" stroke-width="22.6772" stroke-miterlimit="10" d="M269.579,255.427c0,7.657-6.207,13.864-13.863,13.864
	H28.326c-7.657,0-13.865-6.207-13.865-13.864V28.038c0-7.657,6.208-13.865,13.865-13.865h227.39c7.656,0,13.863,6.208,13.863,13.865
	V255.427z"/>
<defs>
	
	
		<inkscape:perspective  inkscape:vp_z="48 : 24 : 1" sodipodi:type="inkscape:persp3d" inkscape:vp_y="0 : 1000 : 0" id="perspective60" inkscape:vp_x="0 : 24 : 1" inkscape:persp3d-origin="24 : 16 : 1">
		</inkscape:perspective>
</defs>
<sodipodi:namedview  fill="#3465a4" stroke="#204a87" inkscape:zoom="4" bordercolor="#666666" showgrid="false" id="base" pagecolor="#ffffff" inkscape:cy="26.37487" borderopacity="0.25490196" inkscape:cx="19.425317" inkscape:pageopacity="0.0" inkscape:pageshadow="2" inkscape:current-layer="layer1" inkscape:grid-bbox="true" inkscape:document-units="px" inkscape:showpageshadow="false" inkscape:window-width="1034" inkscape:window-height="818" inkscape:window-x="400" inkscape:window-y="30">
	</sodipodi:namedview>
<g id="layer1_1_" inkscape:label="Layer 1" inkscape:groupmode="layer">
	
		<linearGradient id="path3243_1_" gradientUnits="userSpaceOnUse" x1="1737.748" y1="-988.5322" x2="1844.1836" y2="-1454.8999" gradientTransform="matrix(0.2007 0 0 -0.2007 -276.3796 -68.1101)">
		<stop  offset="0" style="stop-color:#184375"/>
		<stop  offset="1" style="stop-color:#C8BDDC"/>
	</linearGradient>
	
		<path id="path3243" inkscape:r_cy="true" inkscape:r_cx="true" fill="url(#path3243_1_)" stroke="#3F4561" stroke-linecap="round" stroke-linejoin="round" d="
		M85.027,151.229c-0.947,0.065-1.867,0.212-2.797,0.318h-0.063l-2.225,12.136c-3.625,0.825-7.035,2.227-10.104,4.13l-9.977-7.18
		c-2.695,2.094-5.148,4.535-7.305,7.18l6.926,10.103c-2.104,3.214-3.686,6.883-4.576,10.738c0,0.019,0,0.061,0,0.063l-12.072,1.906
		c-0.221,1.803-0.316,3.666-0.316,5.527c0,1.523,0.041,3.027,0.189,4.512l12.072,2.16c0.859,4.191,2.49,8.107,4.766,11.564
		l-7.18,9.85c2.057,2.551,4.43,4.875,6.988,6.924l10.168-6.988c3.551,2.266,7.52,3.855,11.816,4.639l1.906,12.008
		c1.355,0.123,2.744,0.127,4.131,0.127c1.957,0,3.828-0.074,5.719-0.318l2.287-12.262c4.082-1.016,7.916-2.777,11.246-5.146
		l9.785,7.115c2.537-2.158,4.857-4.641,6.861-7.307l-7.115-10.293c1.928-3.328,3.264-7.002,3.939-10.928l12.008-1.906
		c0.105-1.254,0.129-2.469,0.129-3.75c0-2.225-0.26-4.406-0.574-6.544l-12.199-2.224c-0.955-3.53-2.523-6.824-4.51-9.785l7.18-9.849
		c-2.225-2.722-4.764-5.236-7.561-7.37l-10.357,7.116c-2.977-1.761-6.18-3.111-9.658-3.876l-1.906-12.072
		c-1.734-0.204-3.484-0.318-5.273-0.318c-0.482,0-0.982-0.015-1.461,0c-0.234,0.008-0.467-0.014-0.699,0
		C85.152,151.232,85.09,151.225,85.027,151.229z M86.678,182.108c0.232-0.012,0.463,0,0.699,0c7.521,0,13.66,6.14,13.66,13.661
		s-6.139,13.598-13.66,13.598s-13.598-6.076-13.598-13.598C73.779,188.483,79.482,182.474,86.678,182.108z"/>
	
		<path id="path3283" sodipodi:cx="23.511301" sodipodi:ry="12.727922" sodipodi:cy="23.781593" sodipodi:type="arc" sodipodi:rx="12.727922" inkscape:r_cy="true" inkscape:r_cx="true" opacity="0.6477" fill="none" stroke="#FFFFFF" stroke-width="1.6218" enable-background="new    " d="
		M103.08,195.74c0.004,8.668-7.023,15.697-15.693,15.699c-8.668,0.002-15.695-7.023-15.697-15.693c0-0.002,0-0.004,0-0.006
		c-0.002-8.668,7.025-15.697,15.693-15.698c8.668-0.002,15.697,7.024,15.697,15.692C103.08,195.736,103.08,195.738,103.08,195.74z"
		/>
	
		<path id="path3285" inkscape:r_cy="true" inkscape:r_cx="true" sodipodi:nodetypes="ccccccccccccccccccccccccccccccccc" opacity="0.3466" fill="none" stroke="#FFFFFF" stroke-width="1" enable-background="new    " d="
		M83.617,153.631l-1.785,11.75c-3.396,0.773-9.646,3.141-12.521,4.925l-9.5-7.091c-2.527,1.963-2.701,2.096-4.721,4.574
		l6.867,10.187c-1.971,3.013-4.34,8.38-5.188,12.216l-12.035,2.029c-0.207,1.689-0.109,5.307,0.031,6.699l11.496,2.07
		c0.805,3.93,3.816,10.254,5.949,13.494l-7.27,9.605c1.926,2.393,2.313,2.611,4.711,4.531l9.723-7.121
		c3.328,2.123,9.939,4.709,13.969,5.441l1.596,11.604c1.27,0.113,4.777,0.438,6.551,0.211l1.785-12.078
		c3.826-0.953,10.438-3.666,13.559-5.887l9.711,7.016c2.379-2.023,2.398-2.328,4.277-4.826l-7.195-10.229
		c1.805-3.121,4.141-9.223,4.777-12.902l11.781-1.957c0.098-1.174,0.102-4.449-0.191-6.454l-12.004-2.07
		c-0.895-3.31-3.971-9.271-5.832-12.048l7.629-9.604c-2.086-2.552-2.861-2.901-5.484-4.902l-10.047,7.196
		c-2.791-1.65-8.355-4.166-11.613-4.883l-1.777-11.496C89.24,153.439,84.547,153.524,83.617,153.631z"/>
	
		<path id="path3767" inkscape:r_cy="true" inkscape:r_cx="true" sodipodi:nodetypes="cccccccccsccccccccccccccccccccsccccc" opacity="0.5" fill="#FFFFFF" enable-background="new    " d="
		M59.832,161.928c-2.695,2.094-3.875,3.35-6.031,5.994l6.805,9.931c-2.102,3.197-4.316,8.334-4.693,11.457l-12.125,2.088
		c-0.139,1.127-0.348,3.706-0.348,3.706l0.354,3.125c0.855,0.176,1.68,0.34,2.563,0.438l1-3.063
		c0.688,0.057,1.359,0.125,2.063,0.125s1.438-0.067,2.125-0.125l0.938,3.063c0.883-0.098,1.77-0.262,2.625-0.438v-3.125
		c1.371-0.319,2.664-0.775,3.938-1.313l1.875,2.563c0.805-0.364,1.551-0.752,2.313-1.188l-1-3c1.195-0.725,2.324-1.591,3.375-2.5
		l2.563,1.875c0.652-0.593,1.281-1.224,1.875-1.875l-1.875-2.5c0.91-1.052,1.713-2.18,2.438-3.375l3,0.938
		c0.436-0.762,0.887-1.508,1.25-2.313l-2.563-1.875c0.537-1.273,0.93-2.566,1.25-3.938h3.188c0.176-0.855,0.279-1.742,0.375-2.625
		l-3-0.938c0.059-0.688,0.125-1.422,0.125-2.125s-0.068-1.374-0.125-2.063l3-0.938c-0.09-0.84-0.211-1.684-0.375-2.5
		c-2.295,0.799-5.105,2.307-7.137,3.567L59.832,161.928z"/>
	<path id="path3770" inkscape:r_cy="true" inkscape:r_cx="true" opacity="0.5" fill="#FFFFFF" enable-background="new    " d="
		M114.1,183.77c-0.766,0.362-1.492,0.771-2.227,1.191l1.141,3.47c-1.395,0.845-2.711,1.839-3.938,2.899l-2.951-2.175
		c-0.76,0.691-1.482,1.415-2.174,2.175l2.174,2.952c-1.061,1.227-2.055,2.542-2.9,3.935l-1.086-0.361
		c-0.098,1.4-0.473,2.723-1.037,3.936l0.207,0.156c-0.627,1.484-1.129,3.061-1.502,4.66h-2.951c-0.271,0.172-0.541,0.371-0.83,0.518
		c-0.156,0.83-0.27,1.635-0.361,2.486l3.521,1.139c-0.066,0.803-0.104,1.615-0.104,2.434c0,0.82,0.037,1.631,0.104,2.436
		l-3.521,1.139c0.111,1.029,0.26,2.057,0.467,3.055l3.676-0.053c0.258,1.102,0.605,2.215,0.984,3.264
		c1.49-0.574,2.949-1.26,4.299-2.072c-0.822-2.432-1.295-5.059-1.295-7.768c0-10.396,6.586-19.272,15.795-22.682l-2.174-0.363
		c-0.447-1.645-1.023-3.257-1.762-4.764c-0.023-0.045-0.031-0.111-0.053-0.155l-0.104-0.104L114.1,183.77z"/>
</g>
<g id="layer1_2_" inkscape:label="Layer 1" inkscape:groupmode="layer">
	
		<linearGradient id="path3243_3_" gradientUnits="userSpaceOnUse" x1="2130.293" y1="-394.7656" x2="2289.9458" y2="-1094.3151" gradientTransform="matrix(0.2007 0 0 -0.2007 -276.3796 -68.1101)">
		<stop  offset="0" style="stop-color:#184375"/>
		<stop  offset="1" style="stop-color:#C8BDDC"/>
	</linearGradient>
	
		<path id="path3243_2_" inkscape:r_cy="true" inkscape:r_cx="true" fill="url(#path3243_3_)" stroke="#3F4561" stroke-linecap="round" stroke-linejoin="round" d="
		M170.129,42.529c-1.418,0.098-2.797,0.318-4.191,0.479h-0.098l-3.334,18.203c-5.438,1.238-10.553,3.34-15.154,6.195l-14.963-10.77
		c-4.045,3.141-7.729,6.801-10.963,10.77l10.389,15.152c-3.152,4.82-5.525,10.324-6.861,16.107c0,0.029,0,0.092,0,0.096
		l-18.109,2.859c-0.33,2.703-0.477,5.5-0.477,8.291c0,2.285,0.064,4.541,0.287,6.768l18.107,3.24
		c1.289,6.287,3.736,12.162,7.148,17.346l-10.77,14.774c3.086,3.826,6.645,7.313,10.486,10.385l15.247-10.48
		c5.332,3.398,11.279,5.781,17.73,6.957l2.859,18.012c2.029,0.184,4.113,0.191,6.193,0.191c2.936,0,5.742-0.113,8.578-0.479
		l3.43-18.393c6.125-1.523,11.875-4.166,16.871-7.719l14.676,10.672c3.807-3.238,7.287-6.961,10.293-10.961l-10.672-15.437
		c2.891-4.992,4.895-10.504,5.908-16.393l18.012-2.859c0.158-1.881,0.193-3.703,0.193-5.625c0-3.338-0.391-6.609-0.861-9.816
		l-18.299-3.334c-1.434-5.297-3.785-10.238-6.766-14.68l10.77-14.771c-3.336-4.084-7.145-7.855-11.34-11.057L198.914,66.93
		c-4.465-2.641-9.27-4.668-14.488-5.814l-2.859-18.107c-2.602-0.307-5.227-0.479-7.91-0.479c-0.727,0-1.471-0.021-2.191,0
		c-0.352,0.012-0.697-0.021-1.049,0C170.322,42.535,170.223,42.523,170.129,42.529z M172.607,88.85c0.35-0.018,0.697,0,1.049,0
		c11.281,0,20.49,9.209,20.49,20.49c0,11.283-9.209,20.398-20.49,20.398s-20.396-9.115-20.396-20.398
		C153.26,98.412,161.814,89.396,172.607,88.85z"/>
	
		<path id="path3283_2_" sodipodi:cx="23.511301" sodipodi:ry="12.727922" sodipodi:cy="23.781593" sodipodi:type="arc" sodipodi:rx="12.727922" inkscape:r_cy="true" inkscape:r_cx="true" opacity="0.6477" fill="none" stroke="#FFFFFF" stroke-width="1.6218" enable-background="new    " d="
		M197.211,109.297c0.006,13.002-10.535,23.547-23.537,23.549s-23.549-10.535-23.549-23.541c0-0.002,0-0.004,0-0.008
		c-0.004-13.002,10.535-23.547,23.537-23.547c13.006-0.004,23.549,10.535,23.549,23.539
		C197.211,109.291,197.211,109.293,197.211,109.297z"/>
	
		<path id="path3285_2_" inkscape:r_cy="true" inkscape:r_cx="true" sodipodi:nodetypes="ccccccccccccccccccccccccccccccccc" opacity="0.3466" fill="none" stroke="#FFFFFF" stroke-width="1" enable-background="new    " d="
		M168.02,46.133l-2.678,17.625c-5.098,1.16-14.473,4.711-18.785,7.387l-14.25-10.637c-3.791,2.945-4.049,3.145-7.084,6.863
		l10.305,15.279c-2.957,4.518-6.508,12.568-7.785,18.322l-18.053,3.045c-0.311,2.533-0.162,7.959,0.047,10.049l17.244,3.105
		c1.211,5.895,5.725,15.381,8.926,20.242L125,151.819c2.895,3.59,3.473,3.918,7.07,6.797l14.581-10.68
		c4.998,3.184,14.912,7.063,20.955,8.16L170,173.503c1.904,0.17,7.166,0.656,9.826,0.316l2.678-18.117
		c5.738-1.43,15.656-5.5,20.338-8.83l14.566,10.523c3.568-3.035,3.598-3.492,6.416-7.24l-10.793-15.341
		c2.707-4.682,6.211-13.834,7.166-19.354l17.672-2.936c0.146-1.76,0.152-6.674-0.287-9.682l-18.006-3.105
		c-1.342-4.965-5.955-13.906-8.748-18.07l11.443-14.408c-3.129-3.826-4.291-4.352-8.227-7.354l-15.07,10.795
		c-4.186-2.475-12.533-6.248-17.42-7.324l-2.666-17.244C176.451,45.846,169.414,45.973,168.02,46.133z"/>
	
		<path id="path3767_2_" inkscape:r_cy="true" inkscape:r_cx="true" sodipodi:nodetypes="cccccccccsccccccccccccccccccccsccccc" opacity="0.5" fill="#FFFFFF" enable-background="new    " d="
		M132.341,58.578c-4.049,3.141-5.813,5.023-9.047,8.992l10.207,14.895c-3.154,4.797-6.475,12.502-7.043,17.186l-18.188,3.133
		c-0.209,1.689-0.521,5.559-0.521,5.559l0.531,4.688c1.281,0.264,2.521,0.51,3.844,0.656l1.5-4.594
		c1.033,0.084,2.039,0.188,3.094,0.188c1.051,0,2.152-0.102,3.188-0.188l1.406,4.594c1.324-0.146,2.652-0.393,3.938-0.656v-4.688
		c2.055-0.479,3.996-1.162,5.906-1.969l2.813,3.844c1.207-0.547,2.324-1.127,3.469-1.781l-1.5-4.5
		c1.789-1.088,3.482-2.387,5.063-3.75l3.844,2.813c0.975-0.889,1.924-1.836,2.813-2.813l-2.813-3.75
		c1.363-1.578,2.568-3.27,3.656-5.063l4.5,1.406c0.652-1.143,1.328-2.262,1.875-3.469l-3.844-2.813
		c0.805-1.91,1.395-3.85,1.875-5.906h4.781c0.266-1.283,0.418-2.613,0.563-3.938l-4.5-1.406c0.084-1.031,0.188-2.133,0.188-3.188
		s-0.104-2.061-0.188-3.094l4.5-1.406c-0.139-1.26-0.316-2.525-0.563-3.75c-3.443,1.197-7.66,3.459-10.707,5.352L132.341,58.578z"/>
	<path id="path3770_2_" inkscape:r_cy="true" inkscape:r_cx="true" opacity="0.5" fill="#FFFFFF" enable-background="new    " d="
		M213.74,91.34c-1.148,0.545-2.238,1.158-3.34,1.789l1.711,5.203c-2.092,1.268-4.066,2.758-5.906,4.35l-4.428-3.262
		c-1.139,1.037-2.223,2.123-3.26,3.262l3.26,4.428c-1.59,1.84-3.082,3.813-4.35,5.902l-1.629-0.543
		c-0.146,2.102-0.709,4.086-1.557,5.904l0.313,0.234c-0.941,2.227-1.695,4.592-2.254,6.99h-4.426
		c-0.408,0.258-0.813,0.557-1.246,0.777c-0.234,1.244-0.404,2.451-0.543,3.729l5.283,1.709c-0.1,1.203-0.154,2.422-0.154,3.648
		c0,1.23,0.055,2.447,0.154,3.654l-5.283,1.709c0.168,1.543,0.391,3.083,0.701,4.582l5.514-0.08
		c0.387,1.652,0.908,3.322,1.477,4.896c2.234-0.863,4.424-1.891,6.449-3.109c-1.234-3.648-1.943-7.587-1.943-11.651
		c0-15.594,9.879-28.908,23.693-34.021l-3.262-0.545c-0.672-2.467-1.535-4.885-2.643-7.145c-0.035-0.068-0.047-0.168-0.08-0.234
		l-0.154-0.154L213.74,91.34z"/>
</g>
</svg>
