<?xml version="1.0" encoding="utf-8"?>
<!-- Generator: Adobe Illustrator 16.0.3, SVG Export Plug-In . SVG Version: 6.00 Build 0)  -->
<!DOCTYPE svg PUBLIC "-//W3C//DTD SVG 1.1//EN" "http://www.w3.org/Graphics/SVG/1.1/DTD/svg11.dtd">
<svg version="1.1" id="Layer_1" xmlns="http://www.w3.org/2000/svg" xmlns:xlink="http://www.w3.org/1999/xlink" x="0px" y="0px"
	 width="283.46px" height="283.46px" viewBox="0 0 283.46 283.46" enable-background="new 0 0 283.46 283.46" xml:space="preserve">
<path stroke="#72B02E" stroke-width="22.6772" stroke-miterlimit="10" d="M269.291,255.427c0,7.657-6.207,13.864-13.864,13.864
	H28.038c-7.657,0-13.865-6.207-13.865-13.864V28.038c0-7.657,6.208-13.865,13.865-13.865h227.389
	c7.657,0,13.864,6.208,13.864,13.865V255.427z"/>
<g id="layer1" inkscape:label="Layer 1" inkscape:groupmode="layer">
	<g id="g6707" transform="matrix(2.45274e-2,0,0,2.086758e-2,45.15006,37.31476)">
		
			<linearGradient id="rect6709_1_" gradientUnits="userSpaceOnUse" x1="176966.4219" y1="-496814.9063" x2="176966.4219" y2="-497786.4375" gradientTransform="matrix(0.068 0 0 -0.0411 -8095.959 -13742.6641)">
			<stop  offset="0" style="stop-color:#000000;stop-opacity:0"/>
			<stop  offset="0.5" style="stop-color:#000000"/>
			<stop  offset="1" style="stop-color:#000000;stop-opacity:0"/>
		</linearGradient>
		
			<rect id="rect6709" x="1258.452" y="6676.438" opacity="0.4021" fill="url(#rect6709_1_)" enable-background="new    " width="5358.631" height="1913.441"/>
		
			<radialGradient id="path6711_1_" cx="216857.7188" cy="-519818.75" r="468.7688" gradientTransform="matrix(0.068 0 0 -0.0411 -8095.4014 -13742.6641)" gradientUnits="userSpaceOnUse">
			<stop  offset="0" style="stop-color:#000000"/>
			<stop  offset="1" style="stop-color:#000000;stop-opacity:0"/>
		</radialGradient>
		<path id="path6711" sodipodi:nodetypes="cccc" opacity="0.4021" fill="url(#path6711_1_)" enable-background="new    " d="
			M6617.083,6676.438V8589.88c571.437,3.557,1381.608-428.662,1381.608-956.908
			C7998.691,7105.101,7360.843,6676.438,6617.083,6676.438z"/>
		
			<radialGradient id="path6713_1_" cx="-110713.3047" cy="-519818.75" r="468.7838" gradientTransform="matrix(-0.068 0 0 -0.0411 -6303.9004 -13742.6641)" gradientUnits="userSpaceOnUse">
			<stop  offset="0" style="stop-color:#000000"/>
			<stop  offset="1" style="stop-color:#000000;stop-opacity:0"/>
		</radialGradient>
		<path id="path6713" sodipodi:nodetypes="cccc" opacity="0.4021" fill="url(#path6713_1_)" enable-background="new    " d="
			M1258.452,6676.438V8589.88c-571.516,3.557-1381.609-428.662-1381.609-956.908
			C-123.157,7105.101,514.533,6676.438,1258.452,6676.438z"/>
	</g>
	
		<radialGradient id="path2664_1_" cx="455.709" cy="-944.6797" r="69.9956" gradientTransform="matrix(0.6932 0 0 -0.3679 -141.5044 -148.3384)" gradientUnits="userSpaceOnUse">
		<stop  offset="0" style="stop-color:#000000"/>
		<stop  offset="1" style="stop-color:#000000;stop-opacity:0"/>
	</radialGradient>
	
		<path id="path2664" sodipodi:cx="25.375000" sodipodi:ry="7.9375000" sodipodi:cy="36.812500" sodipodi:type="arc" sodipodi:rx="17.500000" opacity="0.3987" fill="url(#path2664_1_)" enable-background="new    " d="
		M222.916,199.209c0,14.219-21.727,25.75-48.523,25.75s-48.523-11.531-48.523-25.75s21.726-25.75,48.523-25.75
		S222.916,184.99,222.916,199.209z"/>
	
		<linearGradient id="path2608_1_" gradientUnits="userSpaceOnUse" x1="227.8271" y1="-154.1699" x2="255.7195" y2="-154.1699" gradientTransform="matrix(1.0358 0 0 -1 -155.6299 5.4727)">
		<stop  offset="0" style="stop-color:#555753"/>
		<stop  offset="1" style="stop-color:#313330"/>
	</linearGradient>
	<path id="path2608" sodipodi:nodetypes="csscssscssc" fill="url(#path2608_1_)" stroke="#282828" stroke-width="2" d="
		M84.124,115.643c-13.885,0-25.117,4.48-25.117,10c0,0.629,0.629,1.152,0.906,1.75c-0.041,0.199-0.389,0.164-0.389,0.375
		c0,0-0.518,65.246-0.518,65.875c0,5.52,11.232,10,25.117,10s25.117-4.48,25.117-10l-0.518-65.875c0-0.211-0.348-0.176-0.389-0.375
		c0.279-0.598,0.906-1.121,0.906-1.75C109.241,120.123,98.008,115.643,84.124,115.643z"/>
	
		<linearGradient id="path8417_1_" gradientUnits="userSpaceOnUse" x1="269.5771" y1="-139.0645" x2="324.6834" y2="-139.0645" gradientTransform="matrix(1 0 0 -1 -155.7695 5.2695)">
		<stop  offset="0" style="stop-color:#353633"/>
		<stop  offset="1" style="stop-color:#676964"/>
	</linearGradient>
	<path id="path8417" sodipodi:nodetypes="ccccccccczcc" fill="url(#path8417_1_)" stroke="#282828" d="M56.965,194.553h160.568
		c4.445,0.402,8.879-4.602,8.879-7.43v-70.594c-0.402-4.445-15.875-9.695-19.512-10.098h-9.727l-11.695-12.34H143.25l-13.742,12.125
		c0,0-26.906,0.848-47.764,4.668c-20.857,3.824-25.352,10.348-25.352,15.199L56.965,194.553z"/>
	<path id="path2300" sodipodi:nodetypes="cccc" fill="#3F413E" d="M183.955,95.588l5.453,15.152l7.477-1.82L183.955,95.588z"/>
	
		<path id="path2302" sodipodi:cx="41.163715" sodipodi:ry="1.9697975" sodipodi:cy="33.908371" sodipodi:type="arc" sodipodi:rx="1.9697975" fill="#585B57" stroke="#A7A7A7" stroke-width="0.7956" d="
		M218.506,170.342c0,5.469-4.434,9.898-9.902,9.898s-9.906-4.43-9.906-9.898c0-5.473,4.438-9.906,9.906-9.906
		S218.506,164.869,218.506,170.342z"/>
	
		<linearGradient id="path2280_1_" gradientUnits="userSpaceOnUse" x1="267.8057" y1="-150.4707" x2="331.2686" y2="-116.5308" gradientTransform="matrix(1.0829 0 0 -1.0829 -159.3594 24.6211)">
		<stop  offset="0" style="stop-color:#363D40"/>
		<stop  offset="0.5" style="stop-color:#818F95"/>
		<stop  offset="1" style="stop-color:#31383B"/>
	</linearGradient>
	
		<path id="path2280" sodipodi:cx="30.571428" sodipodi:ry="10.142858" sodipodi:cy="33.571430" sodipodi:type="arc" sodipodi:rx="10.142858" fill="url(#path2280_1_)" d="
		M211.471,167.838c0,24.262-19.672,43.934-43.934,43.934c-24.266,0-43.935-19.672-43.935-43.934
		c0-24.266,19.669-43.934,43.935-43.934C191.799,123.904,211.471,143.572,211.471,167.838z"/>
	
		<linearGradient id="path2278_1_" gradientUnits="userSpaceOnUse" x1="276.4629" y1="-148.5635" x2="317.4377" y2="-131.0179" gradientTransform="matrix(1.0829 0 0 -1.0829 -159.1934 26.5098)">
		<stop  offset="0" style="stop-color:#8B8B8B"/>
		<stop  offset="0.5" style="stop-color:#D3D9DA"/>
		<stop  offset="1" style="stop-color:#828282"/>
	</linearGradient>
	
		<path id="path2278" sodipodi:cx="30.571428" sodipodi:ry="10.142858" sodipodi:cy="33.571430" sodipodi:type="arc" sodipodi:rx="10.142858" fill="url(#path2278_1_)" d="
		M212.135,175.396c0,24.266-19.672,43.938-43.938,43.938c-24.264,0-43.935-19.672-43.935-43.938s19.671-43.938,43.935-43.938
		C192.463,131.459,212.135,151.131,212.135,175.396z"/>
	
		<linearGradient id="path7949_1_" gradientUnits="userSpaceOnUse" x1="230.4355" y1="-153.5645" x2="258.3284" y2="-153.5645" gradientTransform="matrix(1.025 0 0 -1 -155.8057 5.2695)">
		<stop  offset="0" style="stop-color:#555753"/>
		<stop  offset="1" style="stop-color:#313330"/>
	</linearGradient>
	<path id="path7949" sodipodi:nodetypes="csscssscssc" fill="url(#path7949_1_)" d="M84.124,114.834c-13.74,0-24.855,4.48-24.855,10
		c0,0.625,0.621,1.156,0.896,1.75c-0.039,0.195-0.385,0.164-0.385,0.375c0,0-0.512,65.25-0.512,65.875c0,5.52,11.115,10,24.855,10
		c13.742,0,24.857-4.48,24.857-10l-0.514-65.875c0-0.211-0.344-0.18-0.385-0.375c0.275-0.594,0.898-1.125,0.898-1.75
		C108.981,119.314,97.866,114.834,84.124,114.834z"/>
	<path id="path2298" sodipodi:nodetypes="ccccc" fill="#7B7E79" d="M145.367,96.598l-3.031,14.549l-1.414,4.848l-11.111-8.285
		L145.367,96.598z"/>
	<path id="path2276" sodipodi:nodetypes="ccccccc" fill="#A7ABA7" d="M124.514,151.939l19.64-34.332h44.852l19.355,28.461
		l-18.953-34.922h-47.273L124.514,151.939z"/>
	<path id="path7953" sodipodi:nodetypes="cssssccc" fill="#888A85" d="M129.643,107.459c0,0-48.584,2.555-64.625,11
		c-3.408,1.797-5.951,3.359-5.951,5.77c0,5.52,11.295,12.105,24.701,12.105s24-5.98,24-11.5c0-1.258-0.721-2.516-1.75-3.625
		l34.5-7.25L129.643,107.459z"/>
	
		<linearGradient id="path2683_1_" gradientUnits="userSpaceOnUse" x1="273.8164" y1="-99.2227" x2="348.9615" y2="-259.5063" gradientTransform="matrix(1 0 0 -1 -155.7695 5.2695)">
		<stop  offset="0" style="stop-color:#FFFFFF"/>
		<stop  offset="1" style="stop-color:#FFFFFF;stop-opacity:0"/>
	</linearGradient>
	
		<path id="path2683" sodipodi:nodetypes="ccsccscccccccc" opacity="0.4177" fill="none" stroke="url(#path2683_1_)" enable-background="new    " d="
		M146.604,97.887l-15.667,11.174c0,0-25.779,1.738-44.996,5.258c-19.217,3.523-24.881,7.336-25.381,12.055l0.904,66.367
		c1.184,4.641,12.92,8.289,24.914,8.289s22.006-6.398,23.189-11.039l105.951,0.5c5.848,0.117,6.93-2.805,6.93-5.414v-66.707
		c0-2.848-11.367-7.457-14.719-7.832l-11.734,0.25l-12.961-12.9H146.604z"/>
	
		<path id="path8415" sodipodi:cx="30.571428" sodipodi:ry="10.142858" sodipodi:cy="33.571430" sodipodi:type="arc" sodipodi:rx="10.142858" fill="#2E3436" d="
		M212.549,179.107c0,24.262-19.668,43.934-43.934,43.934s-43.935-19.672-43.935-43.934c0-24.266,19.669-43.938,43.935-43.938
		S212.549,154.842,212.549,179.107z"/>
	
		<radialGradient id="path2589_1_" cx="195.8105" cy="8.3145" r="18.5037" gradientTransform="matrix(1.677 0 0 -1.6996 -152.8281 200.7852)" gradientUnits="userSpaceOnUse">
		<stop  offset="0" style="stop-color:#7A7A7A"/>
		<stop  offset="1" style="stop-color:#000000"/>
	</radialGradient>
	
		<linearGradient id="path2589_2_" gradientUnits="userSpaceOnUse" x1="181.2559" y1="23.8936" x2="202.4822" y2="-7.3535" gradientTransform="matrix(1.677 0 0 -1.677 -152.8281 194.3535)">
		<stop  offset="0" style="stop-color:#010101"/>
		<stop  offset="1" style="stop-color:#959595"/>
	</linearGradient>
	
		<path id="path2589" sodipodi:cx="15.750000" sodipodi:ry="4.1875000" sodipodi:cy="22.562500" sodipodi:type="arc" sodipodi:rx="4.1250000" fill="url(#path2589_1_)" stroke="url(#path2589_2_)" stroke-width="0.5963" d="
		M195.666,179.107c0,15.508-12.391,28.086-27.672,28.086s-27.667-12.578-27.667-28.086c0-15.516,12.386-28.094,27.667-28.094
		S195.666,163.592,195.666,179.107z"/>
	
		<path id="path2599" sodipodi:cx="14.750000" sodipodi:ry="1.8125000" sodipodi:cy="22.687500" sodipodi:type="arc" sodipodi:rx="1.7500000" opacity="0.6076" fill="#FFFFFF" fill-opacity="0.5287" enable-background="new    " d="
		M181.072,179.365c0,6.715-5.254,12.156-11.738,12.156c-6.48,0-11.738-5.441-11.738-12.156s5.258-12.156,11.738-12.156
		C175.818,167.209,181.072,172.65,181.072,179.365z"/>
	
		<path id="path2601" sodipodi:cx="14.750000" sodipodi:ry="1.8125000" sodipodi:cy="22.687500" sodipodi:type="arc" sodipodi:rx="1.7500000" opacity="0.3734" fill="#FFFFFF" enable-background="new    " d="
		M172.162,171.803c0,6.703-5.246,12.133-11.715,12.133s-11.711-5.43-11.711-12.133c0-6.699,5.242-12.133,11.711-12.133
		S172.162,165.104,172.162,171.803z"/>
	
		<radialGradient id="path8405_1_" cx="752.416" cy="-753.8291" r="7.0015" gradientTransform="matrix(0.4127 0 0 -0.4275 -127.9731 -128.9199)" gradientUnits="userSpaceOnUse">
		<stop  offset="0" style="stop-color:#FFFFFF"/>
		<stop  offset="1" style="stop-color:#FFFFFF;stop-opacity:0"/>
	</radialGradient>
	
		<path id="path8405" sodipodi:cx="14.750000" sodipodi:ry="1.8125000" sodipodi:cy="22.687500" sodipodi:type="arc" sodipodi:rx="1.7500000" fill="url(#path8405_1_)" d="
		M185.439,193.342c0,1.652-1.297,2.992-2.891,2.992s-2.891-1.34-2.891-2.992s1.297-2.992,2.891-2.992
		S185.439,191.689,185.439,193.342z"/>
	
		<linearGradient id="path1507_1_" gradientUnits="userSpaceOnUse" x1="321.7441" y1="-72.3379" x2="321.7441" y2="-86.076" gradientTransform="matrix(1 0 0 -1 -155.7695 5.2695)">
		<stop  offset="0" style="stop-color:#555753"/>
		<stop  offset="1" style="stop-color:#141514"/>
	</linearGradient>
	<path id="path1507" sodipodi:nodetypes="ccccccccc" fill="url(#path1507_1_)" d="M137.286,102.256l11.716-8.486l3.641-9.697h25.453
		l5.254,11.719l11.313,9.699L184.561,61.85h-39.598L137.286,102.256z"/>
	
		<linearGradient id="rect3297_1_" gradientUnits="userSpaceOnUse" x1="204.7109" y1="83.7554" x2="204.7109" y2="80.4862" gradientTransform="matrix(1.4778 0 0 -1.9822 -137.5586 232.4482)">
		<stop  offset="0" style="stop-color:#FFFFFF"/>
		<stop  offset="1" style="stop-color:#CBCBCB"/>
	</linearGradient>
	
		<linearGradient id="rect3297_2_" gradientUnits="userSpaceOnUse" x1="229.4668" y1="-194.856" x2="229.4668" y2="-173.0432" gradientTransform="matrix(1.3184 0 0 -0.7732 -137.5664 -73.436)">
		<stop  offset="0" style="stop-color:#EEEEEE"/>
		<stop  offset="1" style="stop-color:#A2A2A2"/>
	</linearGradient>
	<path id="rect3297" fill="url(#rect3297_1_)" stroke="url(#rect3297_2_)" d="M152.322,58.506h25.285
		c3.32,0,6.012,2.693,6.012,6.014v6.307c0,3.322-2.691,6.014-6.012,6.014h-25.285c-3.32,0-6.016-2.691-6.016-6.014V64.52
		C146.307,61.199,149.002,58.506,152.322,58.506z"/>
	
		<path id="path2288" sodipodi:cx="8.7857141" sodipodi:ry="2.5000000" sodipodi:cy="38.214287" sodipodi:type="arc" sodipodi:rx="6.0714288" fill="#2F302E" d="
		M100.549,124.986c0,3.063-3.908,5.543-8.73,5.543c-4.82,0-8.729-2.48-8.729-5.543c0-3.059,3.908-5.543,8.729-5.543
		C96.641,119.443,100.549,121.928,100.549,124.986L100.549,124.986z"/>
	<path id="path2312" sodipodi:nodetypes="czcccsc" fill="#C4C6C3" d="M59.208,124.959c-0.543,7.145,9.775,15.523,24.781,15.527
		c15.256,0.004,23.396-8.734,24.205-16.41l18.184-6.871l-20.607,4.043c0.404,7.676-6.809,15.32-21.762,15.082
		C67.663,136.068,61.708,129.709,59.208,124.959z"/>
	
		<linearGradient id="rect2282_1_" gradientUnits="userSpaceOnUse" x1="408.6611" y1="54.7163" x2="408.6611" y2="51.4475" gradientTransform="matrix(0.6552 0 0 -1.8985 -140.8374 224.7002)">
		<stop  offset="0" style="stop-color:#FFFFFF"/>
		<stop  offset="1" style="stop-color:#CBCBCB"/>
	</linearGradient>
	<path id="rect2282" fill="url(#rect2282_1_)" stroke="#464646" d="M121.426,113.229h10.982c1.535,0,2.781,1.246,2.781,2.781v11.996
		c0,1.539-1.246,2.781-2.781,2.781h-10.982c-1.535,0-2.781-1.242-2.781-2.781V116.01
		C118.645,114.475,119.891,113.229,121.426,113.229z"/>
	
		<path id="path2612" sodipodi:cx="14.750000" sodipodi:ry="1.8125000" sodipodi:cy="22.687500" sodipodi:type="arc" sodipodi:rx="1.7500000" opacity="0.4304" fill="#FFFFFF" enable-background="new    " d="
		M91.932,124.881c0,1.563-1.223,2.828-2.729,2.828c-1.508,0-2.729-1.266-2.729-2.828c0-1.559,1.221-2.824,2.729-2.824
		C90.709,122.057,91.932,123.322,91.932,124.881z"/>
	
		<path id="path2629" sodipodi:cx="14.750000" sodipodi:ry="1.8125000" sodipodi:cy="22.687500" sodipodi:type="arc" sodipodi:rx="1.7500000" fill="#FFFFFF" d="
		M159.705,166.924c0,1.824-1.43,3.309-3.191,3.309s-3.191-1.484-3.191-3.309s1.43-3.309,3.191-3.309S159.705,165.1,159.705,166.924z
		"/>
	
		<path id="path2641" sodipodi:cx="40.625000" sodipodi:ry="0.68750000" sodipodi:cy="20.562500" sodipodi:type="arc" sodipodi:rx="1.6250000" fill="#C5C5C5" fill-opacity="0.5287" d="
		M219.143,123.709c0,2.484-3.023,4.5-6.75,4.5s-6.75-2.016-6.75-4.5s3.023-4.5,6.75-4.5S219.143,121.225,219.143,123.709z"/>
	
		<path id="path2639" sodipodi:cx="40.625000" sodipodi:ry="0.68750000" sodipodi:cy="20.562500" sodipodi:type="arc" sodipodi:rx="1.6250000" fill="#565656" d="
		M219.393,125.209c0,2.484-3.023,4.5-6.75,4.5s-6.75-2.016-6.75-4.5s3.023-4.5,6.75-4.5S219.393,122.725,219.393,125.209z"/>
	<path id="path2650" sodipodi:nodetypes="cs" fill="none" stroke="#777777" d="M141.479,153.646
		c10.41-13.469,35.023-16.77,49.101-4.164"/>
	<path id="path2668" opacity="0.6709" fill="#FFFFFF" enable-background="new    " d="M169.275,167.232
		c-6.484,0-11.645,5.469-11.645,12.18c0,1.539,0.988,2.574,1.488,3.93c0.508,0.07,0.828,0.539,1.355,0.539
		c6.465,0,11.641-5.352,11.641-12.047c0-1.574-1.098-2.68-1.625-4.063C170.033,167.717,169.744,167.232,169.275,167.232z"/>
</g>
</svg>
