<?xml version="1.0" encoding="utf-8"?>
<!-- Generator: Adobe Illustrator 16.0.3, SVG Export Plug-In . SVG Version: 6.00 Build 0)  -->
<!DOCTYPE svg PUBLIC "-//W3C//DTD SVG 1.1//EN" "http://www.w3.org/Graphics/SVG/1.1/DTD/svg11.dtd">
<svg version="1.1" id="Layer_1" xmlns="http://www.w3.org/2000/svg" xmlns:xlink="http://www.w3.org/1999/xlink" x="0px" y="0px"
	 width="283.46px" height="283.46px" viewBox="0 0 283.46 283.46" enable-background="new 0 0 283.46 283.46" xml:space="preserve">
<path stroke="#72B02E" stroke-width="22.6772" stroke-miterlimit="10" d="M269.291,255.427c0,7.657-6.207,13.864-13.864,13.864
	H28.038c-7.657,0-13.865-6.207-13.865-13.864V28.038c0-7.657,6.208-13.865,13.865-13.865h227.389
	c7.657,0,13.864,6.208,13.864,13.865V255.427z"/>
<g>
	<g id="layer3" inkscape:label="Open" inkscape:groupmode="layer">
		
			<radialGradient id="path2375_1_" cx="268.6934" cy="-205.0518" r="129.0407" gradientTransform="matrix(1.0156 0 -0.1031 -1.0005 -126.7461 5.4287)" gradientUnits="userSpaceOnUse">
			<stop  offset="0" style="stop-color:#A0A0A0"/>
			<stop  offset="1" style="stop-color:#A8A8A8"/>
		</radialGradient>
		
			<path id="path2375" sodipodi:nodetypes="ccccccssssccc" fill="url(#path2375_1_)" stroke="#5A5A5A" stroke-linecap="round" stroke-linejoin="round" d="
			M63.946,212.656c0.166,1.684,1.988,3.367,3.645,3.367h124.548c1.652,0,3.141-1.684,2.973-3.367L184.326,104.18
			c-0.168-1.68-1.992-3.359-3.645-3.359h-50.896c-2.361,0-4.836-1.523-5.612-3.844l-4.41-13.223
			c-0.678-2.027-2.189-2.941-5.257-2.941H54.755c-1.654,0-3.143,1.68-2.975,3.359L63.946,212.656z"/>
		
			<path id="path13113" sodipodi:nodetypes="cc" opacity="0.1136" fill="#729FCF" stroke="#000000" stroke-linecap="round" stroke-linejoin="round" enable-background="new    " d="
			M58.819,128.188H183.42"/>
		
			<path id="path13160" sodipodi:nodetypes="cc" opacity="0.1136" fill="#729FCF" stroke="#000000" stroke-linecap="round" stroke-linejoin="round" enable-background="new    " d="
			M66.786,208.188H186.74"/>
		
			<path id="path13139" sodipodi:nodetypes="cc" opacity="0.1136" fill="#729FCF" stroke="#000000" stroke-linecap="round" stroke-linejoin="round" enable-background="new    " d="
			M66.786,200.188H186.74"/>
		<g id="g5022_1_" transform="matrix(2.165152e-2,0,0,1.903841e-2,42.41538,36.93372)">
			
				<linearGradient id="rect4173_2_" gradientUnits="userSpaceOnUse" x1="221848.6719" y1="-621159.625" x2="221848.6719" y2="-622131.125" gradientTransform="matrix(0.0601 0 0 -0.0375 -8914.0078 -15026.9453)">
				<stop  offset="0" style="stop-color:#000000;stop-opacity:0"/>
				<stop  offset="0.5" style="stop-color:#000000"/>
				<stop  offset="1" style="stop-color:#000000;stop-opacity:0"/>
			</linearGradient>
			
				<rect id="rect4173_1_" x="1739.864" y="8266.561" opacity="0.4021" fill="url(#rect4173_2_)" enable-background="new    " width="5358.42" height="1913.525"/>
			
				<radialGradient id="path5058_2_" cx="266980.125" cy="-646376.375" r="468.497" gradientTransform="matrix(0.0601 0 0 -0.0375 -8913.4443 -15026.9453)" gradientUnits="userSpaceOnUse">
				<stop  offset="0" style="stop-color:#000000"/>
				<stop  offset="1" style="stop-color:#000000;stop-opacity:0"/>
			</radialGradient>
			<path id="path5058_1_" sodipodi:nodetypes="cccc" opacity="0.4021" fill="url(#path5058_2_)" enable-background="new    " d="
				M7098.283,8266.561v1913.525c571.541,3.693,1381.585-428.83,1381.585-956.968S7842.116,8266.561,7098.283,8266.561z"/>
			
				<radialGradient id="path5018_2_" cx="-147545.0156" cy="-646376.375" r="468.4674" gradientTransform="matrix(-0.0601 0 0 -0.0375 -7161.5532 -15026.9453)" gradientUnits="userSpaceOnUse">
				<stop  offset="0" style="stop-color:#000000"/>
				<stop  offset="1" style="stop-color:#000000;stop-opacity:0"/>
			</radialGradient>
			<path id="path5018_1_" sodipodi:nodetypes="cccc" opacity="0.4021" fill="url(#path5018_2_)" enable-background="new    " d="
				M1739.864,8266.561v1913.525c-571.541,3.693-1381.584-428.83-1381.584-956.968S996.031,8266.561,1739.864,8266.561z"/>
		</g>
		
			<linearGradient id="path2380_1_" gradientUnits="userSpaceOnUse" x1="135.6563" y1="-283.874" x2="147.4413" y2="-419.4666" gradientTransform="matrix(1.4627 0 -0.0691 -0.6837 -136.749 -84.8179)">
			<stop  offset="0" style="stop-color:#FFFFFF;stop-opacity:0.7006"/>
			<stop  offset="1" style="stop-color:#FFFFFF;stop-opacity:0"/>
		</linearGradient>
		<path id="path2380" sodipodi:nodetypes="ccccccsscsscccc" fill="url(#path2380_1_)" d="M70.153,211.727
			c0.125,1.242-0.619,2.07-1.902,1.656l0,0c-1.283-0.414-2.193-1.242-2.32-2.48L53.813,85.434c-0.125-1.242,0.627-1.992,1.867-1.992
			l59.002-0.363c2.125-0.016,2.957,0.211,3.517,2.066c0,0,4.341,12.449,4.986,14.793l-6.222-11.668
			c-1.06-1.988-2.394-1.652-3.89-1.652h-52.52c-1.242,0-1.986,0.824-1.861,2.066l11.916,123.457L70.153,211.727z"/>
		
			<path id="path13145" sodipodi:nodetypes="cc" opacity="0.1136" fill="#729FCF" stroke="#000000" stroke-linecap="round" stroke-linejoin="round" enable-background="new    " d="
			M54.687,88.188h59.137"/>
		
			<path id="path13115" sodipodi:nodetypes="cc" opacity="0.1136" fill="#729FCF" stroke="#000000" stroke-linecap="round" stroke-linejoin="round" enable-background="new    " d="
			M56.495,104.188h122.956"/>
		
			<g id="g2381" transform="matrix(1.034424,0.000000,0.104520,1.034424,-10.03248,2.631914)" inkscape:export-xdpi="74.800003" inkscape:export-filename="/home/jimmac/ximian_art/icons/nautilus/suse93/gnome-fs-directory.png" inkscape:export-ydpi="74.800003">
			<path id="path2382" sodipodi:nodetypes="cscscs" fill="#FFFFFF" fill-opacity="0.5803" d="M175.561,99.902
				c0.037-1.899,0.059-2.896-1.694-2.896L123.64,97.04c-1.199,0-1.298-0.57,0,0c1.3,0.57,4.988,2.632,8.73,2.806
				C132.37,99.846,175.56,99.91,175.561,99.902z"/>
		</g>
		
			<path id="path13123" sodipodi:nodetypes="cc" opacity="0.1136" fill="#729FCF" stroke="#000000" stroke-linecap="round" stroke-linejoin="round" enable-background="new    " d="
			M58.118,120.188h123.325"/>
		
			<path id="path13121" sodipodi:nodetypes="cc" opacity="0.1136" fill="#729FCF" stroke="#000000" stroke-linecap="round" stroke-linejoin="round" enable-background="new    " d="
			M66.104,192.188h119.952"/>
		
			<path id="path13119" sodipodi:nodetypes="cc" opacity="0.1136" fill="#729FCF" stroke="#000000" stroke-linecap="round" stroke-linejoin="round" enable-background="new    " d="
			M64.929,184.188h120.437"/>
		
			<path id="path13135" sodipodi:nodetypes="cc" opacity="0.1136" fill="#729FCF" stroke="#000000" stroke-linecap="round" stroke-linejoin="round" enable-background="new    " d="
			M64.001,176.188h120.677"/>
		
			<path id="path13137" sodipodi:nodetypes="cc" opacity="0.1136" fill="#729FCF" stroke="#000000" stroke-linecap="round" stroke-linejoin="round" enable-background="new    " d="
			M63.317,168.188h120.681"/>
		
			<path id="path13143" sodipodi:nodetypes="cc" opacity="0.1136" fill="#729FCF" stroke="#000000" stroke-linecap="round" stroke-linejoin="round" enable-background="new    " d="
			M62.489,160.188h120.821"/>
		
			<path id="path13133" sodipodi:nodetypes="cc" opacity="0.1136" fill="#729FCF" stroke="#000000" stroke-linecap="round" stroke-linejoin="round" enable-background="new    " d="
			M61.56,152.188h121.063"/>
		
			<path id="path13117" sodipodi:nodetypes="cc" opacity="0.1136" fill="#729FCF" stroke="#000000" stroke-linecap="round" stroke-linejoin="round" enable-background="new    " d="
			M60.878,144.188h121.065"/>
		
			<g id="g1853" transform="matrix(1.034424,0,0.10452,1.034424,-10.03248,2.631914)" inkscape:export-xdpi="74.800003" inkscape:export-filename="/home/jimmac/ximian_art/icons/nautilus/suse93/gnome-fs-directory.png" inkscape:export-ydpi="74.800003">
			<path id="path1855" sodipodi:nodetypes="cscscs" fill="#FFFFFF" fill-opacity="0.5803" d="M175.561,99.902
				c0.037-1.899,0.059-2.896-1.694-2.896L123.64,97.04c-1.199,0-1.298-0.57,0,0c1.3,0.57,4.988,2.632,8.73,2.806
				C132.37,99.846,175.56,99.91,175.561,99.902z"/>
		</g>
		
			<path id="path13127" sodipodi:nodetypes="cc" opacity="0.1136" fill="#729FCF" stroke="#000000" stroke-linecap="round" stroke-linejoin="round" enable-background="new    " d="
			M57.323,112.188h124.104"/>
		
			<path id="path13125" sodipodi:nodetypes="cc" opacity="0.1136" fill="#729FCF" stroke="#000000" stroke-linecap="round" stroke-linejoin="round" enable-background="new    " d="
			M60.071,136.188h121.185"/>
		
			<path id="path13147" sodipodi:nodetypes="cc" opacity="0.1136" fill="#729FCF" stroke="#000000" stroke-linecap="round" stroke-linejoin="round" enable-background="new    " d="
			M55.563,96.188h61.125"/>
		
			<linearGradient id="path13840_1_" gradientUnits="userSpaceOnUse" x1="286.918" y1="-203.647" x2="276.9182" y2="-112.6494" gradientTransform="matrix(1 0 0 -1 -155.7695 5.2695)">
			<stop  offset="0" style="stop-color:#000000"/>
			<stop  offset="1" style="stop-color:#000000;stop-opacity:0"/>
		</linearGradient>
		<path id="path13840" sodipodi:nodetypes="cccsc" opacity="0.392" fill="url(#path13840_1_)" enable-background="new    " d="
			M182.967,114.555l10.5,98.5l-124.001,0.5l-7.5-99C61.966,114.555,183.467,114.555,182.967,114.555z"/>
		
			<linearGradient id="path8230_1_" gradientUnits="userSpaceOnUse" x1="300.4434" y1="-11.104" x2="297.9432" y2="-92.1087" gradientTransform="matrix(1 0 0 -1.2388 -155.7695 65.2588)">
			<stop  offset="0" style="stop-color:#FAFAFA"/>
			<stop  offset="0.5" style="stop-color:#A8A8A8"/>
			<stop  offset="1" style="stop-color:#CDCDCD"/>
		</linearGradient>
		
			<radialGradient id="path8230_2_" cx="378.1162" cy="-7.126" r="147.4382" gradientTransform="matrix(0.9683 0 0 -1.0467 -111.1563 1.4082)" gradientUnits="userSpaceOnUse">
			<stop  offset="0" style="stop-color:#A3A3A3"/>
			<stop  offset="1" style="stop-color:#4C4C4C"/>
		</radialGradient>
		<path id="path8230" sodipodi:nodetypes="ccccc" fill="url(#path8230_1_)" stroke="url(#path8230_2_)" d="M218.967,68.032
			c2,67.515-36.301,74.116-24.051,116l-125.95,3.547c-7.5-51.414,33.5-84.859,21.5-118.925L218.967,68.032z"/>
		<path id="path8277" sodipodi:nodetypes="cc" fill="none" stroke="#A1A1A1" d="M107.216,84.305h94.251"/>
		
			<linearGradient id="path2401_1_" gradientUnits="userSpaceOnUse" x1="255.5654" y1="-193.6929" x2="255.1228" y2="-173.9427" gradientTransform="matrix(1 0 0 -1.0221 -103.7129 10.373)">
			<stop  offset="0" style="stop-color:#6194CB"/>
			<stop  offset="1" style="stop-color:#729FCF"/>
		</linearGradient>
		
			<path id="path2401" inkscape:export-xdpi="74.800003" inkscape:export-filename="/home/jimmac/ximian_art/icons/nautilus/suse93/gnome-fs-directory.png" inkscape:export-ydpi="74.800003" sodipodi:nodetypes="cccsscccscc" fill="url(#path2401_1_)" stroke="#3465A4" stroke-linejoin="round" d="
			M68.581,214.32c0.412,0.844,1.24,1.688,2.482,1.688h133.231c0.828,0,2.086-0.5,2.836-1.055c2.121-1.566,2.617-2.449,3.57-3.895
			c9.793-14.863,23.219-77.105,23.219-77.105c0.414-0.848-0.414-1.695-1.652-1.695H92.571c-1.242,0-6.623,64.429-19.451,77.148
			l-4.953,4.914H68.581z"/>
		<path id="path8279" sodipodi:nodetypes="cc" fill="none" stroke="#A1A1A1" d="M106.89,92.305h78.905"/>
		
			<linearGradient id="path323_1_" gradientUnits="userSpaceOnUse" x1="183.5049" y1="-359.668" x2="214.7694" y2="-418.7774" gradientTransform="matrix(1.5353 0 0 -0.6513 -152.8447 -90.9878)">
			<stop  offset="0" style="stop-color:#FFFFFF;stop-opacity:0.134"/>
			<stop  offset="1" style="stop-color:#FFFFFF;stop-opacity:0.0515"/>
		</linearGradient>
		<path id="path323" sodipodi:nodetypes="ccccc" fill="url(#path323_1_)" d="M98.003,138.609
			c-3.09,19.961-6.004,36.039-10.863,54.055c9.547-2.828,28.467-12.82,68.468-12.82c40,0,66.891-36.993,70.602-41.414
			L98.003,138.609z"/>
		<path id="path8281" sodipodi:nodetypes="cc" fill="none" stroke="#A1A1A1" d="M106.038,100.305h97.261"/>
		
			<linearGradient id="path324_1_" gradientUnits="userSpaceOnUse" x1="216.9307" y1="-312.2915" x2="218.1391" y2="-401.5908" gradientTransform="matrix(1.4215 0 0 -0.7035 -156.4893 -79.2358)">
			<stop  offset="0" style="stop-color:#FFFFFF"/>
			<stop  offset="1" style="stop-color:#FFFFFF;stop-opacity:0"/>
		</linearGradient>
		
			<path id="path324" sodipodi:nodetypes="cccsc" opacity="0.5227" fill="none" stroke="url(#path324_1_)" stroke-linecap="round" enable-background="new    " d="
			M228.748,136.805H96.112c0,0-8.592,64.078-18.889,72.961c32.486,0,126.286-0.195,126.364-0.195
			C210.596,209.57,223.217,159.027,228.748,136.805z"/>
		<path id="path8283" sodipodi:nodetypes="cc" fill="none" stroke="#A1A1A1" d="M103.062,108.306h95.413"/>
		<path id="path8285" sodipodi:nodetypes="cc" fill="none" stroke="#A1A1A1" d="M99.981,116.305h93.384"/>
		<path id="path8287" sodipodi:nodetypes="cc" fill="none" stroke="#A1A1A1" d="M95.548,124.305h74.587"/>
		<path id="path8289" sodipodi:nodetypes="ccccc" fill="#FFFFFF" d="M70.966,185.055c-4.965-48.953,28.75-76.249,22.5-115h123.501
			l-120.001,2.5C101.965,110.806,72.181,131.141,70.966,185.055z"/>
	</g>
	<g id="layer2_1_" inkscape:label="pattern" inkscape:groupmode="layer">
	</g>
</g>
</svg>
