<?xml version="1.0" encoding="utf-8"?>
<!-- Generator: Adobe Illustrator 16.0.3, SVG Export Plug-In . SVG Version: 6.00 Build 0)  -->
<!DOCTYPE svg PUBLIC "-//W3C//DTD SVG 1.1//EN" "http://www.w3.org/Graphics/SVG/1.1/DTD/svg11.dtd">
<svg version="1.1" id="Layer_1" xmlns="http://www.w3.org/2000/svg" xmlns:xlink="http://www.w3.org/1999/xlink" x="0px" y="0px"
	 width="283.46px" height="283.46px" viewBox="0 0 283.46 283.46" enable-background="new 0 0 283.46 283.46" xml:space="preserve">
<path fill="#AF9FFF" stroke="#7700DE" stroke-width="22.6772" stroke-miterlimit="10" d="M269.291,255.427
	c0,7.657-6.207,13.864-13.864,13.864H28.038c-7.657,0-13.865-6.207-13.865-13.864V28.038c0-7.657,6.208-13.865,13.865-13.865
	h227.389c7.657,0,13.864,6.208,13.864,13.865V255.427z"/>
<path fill="#FFFFFF" stroke="#000000" stroke-width="4" d="M-235.275,334.487"/>
<g>
	<polygon fill="none" stroke="#000000" stroke-width="5.6693" stroke-linejoin="round" points="70.866,212.598 70.866,99.21 
		99.212,70.863 99.212,184.25 	"/>
	
		<rect x="99.211" y="70.868" fill="none" stroke="#000000" stroke-width="5.6693" stroke-linejoin="round" width="113.386" height="113.388"/>
	<polygon fill="none" stroke="#000000" stroke-width="5.6693" stroke-linejoin="round" points="70.866,99.21 99.212,70.863 
		212.598,70.863 184.252,99.21 	"/>
	<polygon fill="none" stroke="#000000" stroke-width="5.6693" stroke-linejoin="round" points="212.598,184.25 184.252,212.598 
		70.866,212.598 99.212,184.25 	"/>
	<polygon fill="none" stroke="#000000" stroke-width="5.6693" stroke-linejoin="round" points="212.598,70.863 212.598,184.25 
		184.252,212.598 184.252,99.21 	"/>
	
		<rect x="70.866" y="99.215" fill="#007DBF" stroke="#000000" stroke-width="5.6693" stroke-linejoin="round" width="113.384" height="113.387"/>
</g>
</svg>
